<svg width="156" height="33" viewBox="0 0 156 33" fill="none" xmlns="http://www.w3.org/2000/svg">
<path d="M19.2069 28.7107V31.7515H8.70664V28.7107H19.2069ZM24.8728 23.0448V12.5445C24.8728 10.9708 24.8704 9.97301 24.8087 9.21821C24.75 8.49887 24.6528 8.27106 24.6111 8.18917C24.381 7.73764 24.0138 7.3705 23.5623 7.14036C23.4804 7.09863 23.2526 7.0015 22.5333 6.94273C21.7785 6.88108 20.7807 6.87867 19.2069 6.87867H8.70664C7.13288 6.87867 6.13512 6.88108 5.38032 6.94273C4.66098 7.0015 4.43317 7.09863 4.35128 7.14036C3.89975 7.3705 3.5326 7.73764 3.30247 8.18917C3.26074 8.27106 3.16361 8.49887 3.10484 9.21821C3.04319 9.97301 3.04078 10.9708 3.04078 12.5445V23.0448C3.04078 24.6186 3.04319 25.6164 3.10484 26.3712C3.16361 27.0905 3.26074 27.3183 3.30247 27.4002C3.5326 27.8517 3.89975 28.2189 4.35128 28.449C4.43317 28.4907 4.66098 28.5879 5.38032 28.6466C6.13512 28.7083 7.13288 28.7107 8.70664 28.7107V31.7515L7.63262 31.7501C5.45149 31.7426 4.18005 31.6863 3.19412 31.2629L2.97127 31.1586C1.94739 30.6369 1.11459 29.8041 0.592891 28.7802C-9.26309e-05 27.6162 0 26.0922 0 23.0448V12.5445C0 9.68767 3.6312e-05 8.16965 0.488624 7.03201L0.592891 6.80916C1.08195 5.84933 1.84419 5.05739 2.78114 4.53232L2.97127 4.43078C3.98972 3.91193 5.28367 3.84736 7.63262 3.83925L8.70664 3.83789H19.2069C22.2543 3.83789 23.7783 3.8378 24.9423 4.43078C25.9662 4.95248 26.799 5.78528 27.3207 6.80916C27.9137 7.97314 27.9136 9.49718 27.9136 12.5445V23.0448C27.9136 26.0922 27.9137 27.6162 27.3207 28.7802L27.2192 28.9703C26.6941 29.9073 25.9022 30.6695 24.9423 31.1586L24.7195 31.2629C23.5818 31.7514 22.0638 31.7515 19.2069 31.7515V28.7107C20.7807 28.7107 21.7785 28.7083 22.5333 28.6466C23.2526 28.5879 23.4804 28.4907 23.5623 28.449C24.0138 28.2189 24.381 27.8517 24.6111 27.4002C24.6528 27.3183 24.75 27.0905 24.8087 26.3712C24.8704 25.6164 24.8728 24.6186 24.8728 23.0448Z" fill="#586675"/>
<path d="M11.1089 20.6126V23.6534H8.70664V20.6126H11.1089ZM16.7747 14.9468V12.5445C16.7747 10.9708 16.7723 9.97301 16.7107 9.21821C16.6519 8.49887 16.5548 8.27106 16.513 8.18917C16.2829 7.7375 15.9152 7.37051 15.4636 7.14036C15.3816 7.09863 15.1544 7.0015 14.4352 6.94273C13.6804 6.88106 12.6828 6.87867 11.1089 6.87867H8.70664C7.13288 6.87867 6.13512 6.88108 5.38032 6.94273C4.66098 7.0015 4.43317 7.09863 4.35128 7.14036C3.89975 7.3705 3.5326 7.73765 3.30247 8.18917C3.26074 8.27106 3.16361 8.49887 3.10484 9.21821C3.04319 9.97301 3.04078 10.9708 3.04078 12.5445V14.9468C3.04078 16.5207 3.04317 17.5183 3.10484 18.2731C3.16361 18.9923 3.26074 19.2195 3.30247 19.3014C3.53262 19.7531 3.89961 20.1208 4.35128 20.3509C4.43317 20.3927 4.66098 20.4898 5.38032 20.5486C6.13512 20.6102 7.1329 20.6126 8.70664 20.6126V23.6534L7.63262 23.652C5.45139 23.6445 4.18007 23.5876 3.19412 23.1641L2.97127 23.0598C2.01134 22.5707 1.2195 21.8087 0.694432 20.8716L0.592891 20.6821C0.0739204 19.6636 0.00946787 18.3694 0.00136297 16.0201L0 14.9468V12.5445C0 9.68768 3.6312e-05 8.16965 0.488624 7.03201L0.592891 6.80916C1.08195 5.84933 1.84419 5.05739 2.78114 4.53232L2.97127 4.43078C3.98972 3.91193 5.28367 3.84736 7.63262 3.83925L8.70664 3.83789H11.1089L12.1822 3.83925C14.5315 3.84736 15.8257 3.91181 16.8442 4.43078C17.8681 4.95248 18.7003 5.78529 19.2219 6.80916C19.815 7.97316 19.8155 9.49705 19.8155 12.5445V14.9468L19.8141 16.0201C19.806 18.3694 19.7409 19.6636 19.2219 20.6821L19.1204 20.8716C18.5954 21.8085 17.804 22.5707 16.8442 23.0598L16.6214 23.1641C15.6354 23.5877 14.3639 23.6445 12.1822 23.652L11.1089 23.6534V20.6126C12.6828 20.6126 13.6804 20.6102 14.4352 20.5486C15.1541 20.4898 15.3815 20.3927 15.4636 20.3509C15.9153 20.1208 16.2829 19.7532 16.513 19.3014C16.5548 19.2194 16.6519 18.992 16.7107 18.2731C16.7723 17.5183 16.7747 16.5207 16.7747 14.9468Z" fill="#586675"/>
<path d="M19.0972 28.7103V31.7511H16.6949V28.7103H19.0972ZM24.763 23.0444V20.6422C24.763 19.0684 24.7606 18.0707 24.699 17.3159C24.6402 16.5965 24.5431 16.3687 24.5013 16.2868C24.2711 15.8352 23.9035 15.4682 23.4518 15.238C23.3699 15.1963 23.1427 15.0992 22.4235 15.0404C21.6687 14.9787 20.671 14.9763 19.0972 14.9763H16.6949C15.1212 14.9763 14.1234 14.9787 13.3686 15.0404C12.6493 15.0992 12.4215 15.1963 12.3396 15.238C11.888 15.4682 11.5209 15.8353 11.2908 16.2868C11.249 16.3687 11.1519 16.5965 11.0931 17.3159C11.0315 18.0707 11.0291 19.0684 11.0291 20.6422V23.0444C11.0291 24.6183 11.0315 25.6159 11.0931 26.3707C11.1519 27.09 11.249 27.3172 11.2908 27.3991C11.5209 27.8508 11.8879 28.2184 12.3396 28.4486C12.4215 28.4903 12.6493 28.5874 13.3686 28.6462C14.1234 28.7079 15.1212 28.7103 16.6949 28.7103V31.7511L15.6209 31.7497C13.4397 31.7422 12.1684 31.6852 11.1824 31.2618L10.9596 31.1575C9.99962 30.6684 9.20778 29.9063 8.68271 28.9692L8.58117 28.7798C8.0622 27.7613 7.99775 26.4671 7.98964 24.1178L7.98828 23.0444V20.6422C7.98828 17.7853 7.98832 16.2673 8.47691 15.1297L8.58117 14.9068C9.07023 13.947 9.83247 13.155 10.7694 12.63L10.9596 12.5284C11.978 12.0096 13.272 11.945 15.6209 11.9369L16.6949 11.9355H19.0972L20.1705 11.9369C22.5198 11.945 23.814 12.0095 24.8325 12.5284C25.8564 13.0501 26.6885 13.8829 27.2102 14.9068C27.8033 16.0708 27.8038 17.5947 27.8038 20.6422V23.0444L27.8024 24.1178C27.7943 26.4671 27.7292 27.7613 27.2102 28.7798L27.1087 28.9692C26.5836 29.9062 25.7923 30.6684 24.8325 31.1575L24.6097 31.2618C23.6236 31.6854 22.3521 31.7422 20.1705 31.7497L19.0972 31.7511V28.7103C20.671 28.7103 21.6687 28.7079 22.4235 28.6462C23.1424 28.5875 23.3698 28.4904 23.4518 28.4486C23.9036 28.2184 24.2712 27.8508 24.5013 27.3991C24.5431 27.3171 24.6402 27.0896 24.699 26.3707C24.7606 25.6159 24.763 24.6183 24.763 23.0444Z" fill="#586675"/>
<path d="M46.2459 26.2826C44.8285 26.2826 43.604 25.9821 42.5724 25.381C41.5408 24.78 40.7469 23.9233 40.1907 22.8109C39.6345 21.6896 39.3564 20.3709 39.3564 18.8549V18.8414C39.3564 17.3254 39.639 16.0157 40.2041 14.9123C40.7693 13.7999 41.5632 12.9432 42.5858 12.3422C43.6175 11.7412 44.824 11.4407 46.2055 11.4407C47.4614 11.4407 48.5468 11.6784 49.4618 12.1538C50.3768 12.6293 51.0945 13.2617 51.6148 14.0511C52.1351 14.8405 52.4311 15.7107 52.5029 16.6616L52.5163 16.7692H49.3542L49.3407 16.6481C49.1972 15.9574 48.8653 15.3698 48.345 14.8854C47.8337 14.392 47.1339 14.1453 46.2459 14.1453C45.5372 14.1453 44.9227 14.3382 44.4024 14.7239C43.8821 15.1007 43.4784 15.6434 43.1913 16.3521C42.9043 17.0518 42.7608 17.8861 42.7608 18.8549V18.8683C42.7608 19.8641 42.9043 20.7118 43.1913 21.4115C43.4784 22.1112 43.8866 22.6495 44.4158 23.0262C44.9451 23.394 45.5596 23.5779 46.2593 23.5779C47.1115 23.5779 47.7978 23.3492 48.3181 22.8917C48.8473 22.4342 49.1882 21.8287 49.3407 21.0751L49.3676 20.9675H52.5298L52.5163 21.0482C52.4266 22.0439 52.1126 22.9365 51.5744 23.7259C51.0362 24.5154 50.314 25.1388 49.408 25.5963C48.502 26.0538 47.4479 26.2826 46.2459 26.2826ZM60.8725 26.2826C59.4731 26.2826 58.2531 25.9865 57.2125 25.3945C56.1808 24.7934 55.3824 23.9412 54.8173 22.8379C54.2521 21.7255 53.9696 20.4023 53.9696 18.8683V18.8414C53.9696 17.3075 54.2566 15.9888 54.8308 14.8854C55.4049 13.782 56.2077 12.9343 57.2394 12.3422C58.271 11.7412 59.4775 11.4407 60.859 11.4407C62.2495 11.4407 63.4605 11.7367 64.4921 12.3287C65.5327 12.9208 66.3401 13.773 66.9142 14.8854C67.4883 15.9888 67.7754 17.3075 67.7754 18.8414V18.8683C67.7754 20.4113 67.4883 21.7389 66.9142 22.8513C66.3491 23.9547 65.5507 24.8024 64.519 25.3945C63.4874 25.9865 62.2719 26.2826 60.8725 26.2826ZM60.8859 23.5779C61.5946 23.5779 62.2091 23.394 62.7294 23.0262C63.2497 22.6584 63.6534 22.1247 63.9404 21.425C64.2275 20.7163 64.371 19.8641 64.371 18.8683V18.8414C64.371 17.8457 64.223 16.998 63.927 16.2983C63.6399 15.5985 63.2318 15.0648 62.7025 14.697C62.1822 14.3292 61.5677 14.1453 60.859 14.1453C60.1683 14.1453 59.5583 14.3337 59.029 14.7105C58.5087 15.0782 58.1005 15.612 57.8045 16.3117C57.5175 17.0024 57.3739 17.8457 57.3739 18.8414V18.8683C57.3739 19.8641 57.5175 20.7163 57.8045 21.425C58.0916 22.1247 58.4953 22.6584 59.0156 23.0262C59.5448 23.394 60.1683 23.5779 60.8859 23.5779ZM69.9552 26V11.7232H73.2923V13.9569H73.3731C73.7409 13.1944 74.2881 12.5844 75.0147 12.1269C75.7503 11.6694 76.6563 11.4407 77.7328 11.4407C79.3027 11.4407 80.5137 11.9161 81.3659 12.867C82.2271 13.8089 82.6577 15.1096 82.6577 16.7692V26H79.3206V17.442C79.3206 16.4194 79.0829 15.6344 78.6074 15.0872C78.132 14.54 77.4143 14.2664 76.4545 14.2664C75.8176 14.2664 75.2614 14.4099 74.7859 14.697C74.3105 14.9841 73.9427 15.3877 73.6825 15.908C73.4224 16.4283 73.2923 17.0338 73.2923 17.7246V26H69.9552ZM86.3042 26V14.3068H84.3397V11.7232H86.3042V10.3642C86.3042 9.4402 86.4567 8.6777 86.7617 8.07667C87.0757 7.46666 87.5556 7.01364 88.2015 6.71761C88.8564 6.42158 89.6996 6.27357 90.7312 6.27357C91.0542 6.27357 91.3771 6.28702 91.7001 6.31393C92.032 6.34085 92.3011 6.37673 92.5074 6.42158V8.76292C92.3729 8.73601 92.2159 8.71807 92.0365 8.7091C91.8571 8.70012 91.6776 8.69564 91.4982 8.69564C90.8523 8.69564 90.3724 8.84365 90.0584 9.13969C89.7445 9.43572 89.5875 9.87528 89.5875 10.4584V11.7232H92.4671V14.3068H89.6548V26H86.3042ZM94.7815 26V11.7232H98.132V26H94.7815ZM96.45 9.67792C95.9297 9.67792 95.4857 9.49851 95.1179 9.13969C94.7591 8.77189 94.5797 8.33681 94.5797 7.83446C94.5797 7.3321 94.7591 6.90151 95.1179 6.54269C95.4857 6.18386 95.9297 6.00445 96.45 6.00445C96.9793 6.00445 97.4233 6.18386 97.7822 6.54269C98.141 6.90151 98.3204 7.3321 98.3204 7.83446C98.3204 8.33681 98.141 8.77189 97.7822 9.13969C97.4233 9.49851 96.9793 9.67792 96.45 9.67792ZM107.444 31.0056C106.188 31.0056 105.089 30.8307 104.147 30.4808C103.214 30.131 102.469 29.6555 101.913 29.0545C101.357 28.4535 101.012 27.7807 100.877 27.0361L100.85 26.915H104.133L104.187 27.0227C104.367 27.4353 104.734 27.7762 105.291 28.0453C105.847 28.3234 106.56 28.4624 107.43 28.4624C108.525 28.4624 109.363 28.1933 109.946 27.6551C110.529 27.1168 110.821 26.3947 110.821 25.4887V23.4165H110.754C110.494 23.9278 110.144 24.3718 109.704 24.7486C109.274 25.1164 108.767 25.4035 108.184 25.6098C107.61 25.8071 106.982 25.9058 106.3 25.9058C105.107 25.9058 104.066 25.6143 103.178 25.0312C102.299 24.4481 101.617 23.6228 101.133 22.5553C100.657 21.4788 100.42 20.205 100.42 18.7338V18.7203C100.42 17.2133 100.662 15.917 101.146 14.8316C101.64 13.7461 102.33 12.9118 103.218 12.3287C104.106 11.7367 105.152 11.4407 106.354 11.4407C107.026 11.4407 107.645 11.5528 108.211 11.7771C108.776 12.0013 109.269 12.3198 109.691 12.7324C110.121 13.1361 110.476 13.6115 110.754 14.1588H110.821V11.7232H114.172V25.5963C114.172 26.6818 113.898 27.6282 113.351 28.4355C112.804 29.2429 112.028 29.8708 111.023 30.3194C110.018 30.7769 108.825 31.0056 107.444 31.0056ZM107.349 23.3223C108.049 23.3223 108.659 23.1384 109.179 22.7706C109.7 22.3938 110.103 21.869 110.39 21.1962C110.686 20.5145 110.834 19.7116 110.834 18.7876V18.7742C110.834 17.8502 110.686 17.0518 110.39 16.379C110.103 15.7062 109.695 15.1859 109.166 14.8181C108.646 14.4503 108.04 14.2664 107.349 14.2664C106.632 14.2664 106.008 14.4503 105.479 14.8181C104.95 15.1769 104.542 15.6927 104.254 16.3655C103.967 17.0383 103.824 17.8412 103.824 18.7742V18.7876C103.824 19.7206 103.967 20.5279 104.254 21.2097C104.542 21.8825 104.95 22.4028 105.479 22.7706C106.008 23.1384 106.632 23.3223 107.349 23.3223ZM121.801 26.2826C120.751 26.2826 119.859 26.0718 119.123 25.6501C118.388 25.2196 117.827 24.6051 117.441 23.8067C117.065 23.0083 116.876 22.0574 116.876 20.954V11.7232H120.213V20.2812C120.213 21.3039 120.451 22.0933 120.926 22.6495C121.402 23.1967 122.12 23.4703 123.079 23.4703C123.564 23.4703 123.999 23.3895 124.385 23.2281C124.77 23.0576 125.102 22.8199 125.38 22.5149C125.658 22.2099 125.869 21.8466 126.013 21.425C126.156 20.9944 126.228 20.5189 126.228 19.9986V11.7232H129.579V26H126.228V23.7663H126.161C125.91 24.2687 125.582 24.7127 125.178 25.0985C124.775 25.4752 124.29 25.7668 123.725 25.9731C123.16 26.1794 122.519 26.2826 121.801 26.2826ZM132.364 26V11.7232H135.701V14.1857H135.782C135.997 13.3245 136.392 12.6517 136.966 12.1673C137.54 11.6829 138.24 11.4407 139.065 11.4407C139.28 11.4407 139.478 11.4541 139.657 11.481C139.845 11.5079 140.002 11.5393 140.128 11.5752V14.5893C139.994 14.5355 139.805 14.4907 139.563 14.4548C139.321 14.4189 139.056 14.401 138.769 14.401C138.132 14.401 137.585 14.531 137.127 14.7912C136.67 15.0513 136.316 15.4281 136.064 15.9215C135.822 16.4149 135.701 17.0114 135.701 17.7111V26H132.364ZM147.596 26.2826C146.17 26.2826 144.941 25.9821 143.909 25.381C142.887 24.78 142.102 23.9278 141.554 22.8244C141.007 21.712 140.734 20.4023 140.734 18.8953V18.8818C140.734 17.3837 141.007 16.0785 141.554 14.9661C142.111 13.8448 142.887 12.9791 143.882 12.3691C144.887 11.7501 146.071 11.4407 147.435 11.4407C148.798 11.4407 149.973 11.7367 150.96 12.3287C151.947 12.9208 152.705 13.7551 153.234 14.8316C153.772 15.908 154.042 17.1639 154.042 18.5992V19.6892H142.389V17.442H152.44L150.826 19.5411V18.2494C150.826 17.3164 150.682 16.5405 150.395 15.9215C150.117 15.2935 149.722 14.8271 149.211 14.5221C148.708 14.2081 148.13 14.0511 147.475 14.0511C146.811 14.0511 146.219 14.2126 145.699 14.5355C145.188 14.8585 144.784 15.3339 144.488 15.9619C144.201 16.5808 144.057 17.3433 144.057 18.2494V19.5411C144.057 20.4113 144.201 21.1559 144.488 21.7748C144.784 22.3848 145.201 22.8558 145.739 23.1877C146.277 23.5106 146.919 23.6721 147.663 23.6721C148.22 23.6721 148.708 23.5869 149.13 23.4165C149.552 23.237 149.897 23.0083 150.166 22.7302C150.444 22.4521 150.637 22.1516 150.745 21.8287L150.772 21.7345H153.907L153.867 21.8825C153.759 22.4297 153.544 22.9679 153.221 23.4972C152.907 24.0175 152.485 24.4884 151.956 24.9101C151.436 25.3317 150.808 25.6681 150.072 25.9193C149.345 26.1615 148.52 26.2826 147.596 26.2826Z" fill="#586675"/>
</svg>
