<svg width="240" height="40" viewBox="0 0 240 40" fill="none" xmlns="http://www.w3.org/2000/svg">
  <rect x="0.5" y="0.5" width="239" height="39" rx="8" fill="#FFFFFF" stroke="#747775"/>
  <svg x="32" y="11" width="18" height="18" viewBox="0 0 58 58" fill="none" xmlns="http://www.w3.org/2000/svg">
    <path d="M39.4648 51.1065V57.3545H17.8897V51.1065H39.4648ZM51.1065 39.4648V17.8897C51.1065 14.656 51.1016 12.6059 50.9749 11.055C50.8541 9.57698 50.6546 9.1089 50.5688 8.94063C50.096 8.01288 49.3416 7.25849 48.4138 6.78564C48.2455 6.6999 47.7775 6.50032 46.2994 6.37956C44.7485 6.25289 42.6984 6.24794 39.4648 6.24794H17.8897C14.656 6.24794 12.6059 6.25289 11.055 6.37956C9.57698 6.50032 9.1089 6.6999 8.94063 6.78564C8.01288 7.25849 7.25849 8.01288 6.78564 8.94063C6.6999 9.1089 6.50032 9.57698 6.37956 11.055C6.25289 12.6059 6.24794 14.656 6.24794 17.8897V39.4648C6.24794 42.6984 6.25289 44.7485 6.37956 46.2994C6.50032 47.7775 6.6999 48.2455 6.78564 48.4138C7.25849 49.3416 8.01288 50.096 8.94063 50.5688C9.1089 50.6546 9.57698 50.8541 11.055 50.9749C12.6059 51.1016 14.656 51.1065 17.8897 51.1065V57.3545L15.6829 57.3517C11.2013 57.3362 8.58881 57.2205 6.563 56.3505L6.10511 56.1362C4.00132 55.0643 2.29016 53.3531 1.21822 51.2493C-0.00019033 48.8577 0 45.7262 0 39.4648V17.8897C0 12.0196 7.46108e-05 8.90054 1.00398 6.563L1.21822 6.10511C2.2231 4.13293 3.78929 2.50573 5.71444 1.42686L6.10511 1.21822C8.19774 0.152138 10.8564 0.0194638 15.6829 0.00280051L17.8897 0H39.4648C45.7262 0 48.8577 -0.00019033 51.2493 1.21822C53.3531 2.29016 55.0643 4.00132 56.1362 6.10511C57.3546 8.49675 57.3545 11.6282 57.3545 17.8897V39.4648C57.3545 45.7262 57.3546 48.8577 56.1362 51.2493L55.9276 51.64C54.8487 53.5652 53.2215 55.1314 51.2493 56.1362L50.7915 56.3505C48.4539 57.3544 45.3348 57.3545 39.4648 57.3545V51.1065C42.6984 51.1065 44.7485 51.1016 46.2994 50.9749C47.7775 50.8541 48.2455 50.6546 48.4138 50.5688C49.3416 50.096 50.096 49.3416 50.5688 48.4138C50.6546 48.2455 50.8541 47.7775 50.9749 46.2994C51.1016 44.7485 51.1065 42.6984 51.1065 39.4648Z" fill="#586675"/>
    <path d="M22.8256 34.4673V40.7152H17.8897V34.4673H22.8256ZM34.4673 22.8256V17.8897C34.4673 14.6561 34.4623 12.6059 34.3357 11.055C34.2149 9.57698 34.0153 9.1089 33.9296 8.94063C33.4566 8.01258 32.7013 7.25852 31.7732 6.78564C31.6049 6.69988 31.138 6.50031 29.6602 6.37956C28.1093 6.25284 26.0595 6.24794 22.8256 6.24794H17.8897C14.656 6.24794 12.6059 6.25289 11.055 6.37956C9.57698 6.50032 9.1089 6.6999 8.94063 6.78564C8.01288 7.25849 7.25849 8.01288 6.78564 8.94063C6.6999 9.1089 6.50032 9.57698 6.37956 11.055C6.25289 12.6059 6.24794 14.656 6.24794 17.8897V22.8256C6.24794 26.0595 6.25284 28.1093 6.37956 29.6602C6.50031 31.138 6.69989 31.6049 6.78564 31.7732C7.25852 32.7013 8.01258 33.4566 8.94063 33.9296C9.1089 34.0153 9.57698 34.2149 11.055 34.3357C12.6059 34.4623 14.6561 34.4673 17.8897 34.4673V40.7152L15.6829 40.7124C11.201 40.6969 8.58885 40.58 6.563 39.7098L6.10511 39.4956C4.13273 38.4906 2.50572 36.9248 1.42686 34.9994L1.21822 34.6101C0.151885 32.5173 0.0194538 29.8582 0.00280051 25.031L0 22.8256V17.8897C0 12.0196 7.46108e-05 8.90054 1.00398 6.563L1.21822 6.10511C2.2231 4.13293 3.78929 2.50573 5.71444 1.42686L6.10511 1.21822C8.19774 0.152138 10.8564 0.0194639 15.6829 0.00280051L17.8897 0H22.8256L25.031 0.00280051C29.8582 0.0194536 32.5173 0.151884 34.6101 1.21822C36.7139 2.29016 38.4237 4.00135 39.4956 6.10511C40.7142 8.49679 40.7152 11.628 40.7152 17.8897V22.8256L40.7124 25.031C40.6958 29.8582 40.5619 32.5173 39.4956 34.6101L39.287 34.9994C38.2082 36.9245 36.5822 38.4907 34.6101 39.4956L34.1522 39.7098C32.1262 40.5802 29.5136 40.697 25.031 40.7124L22.8256 40.7152V34.4673C26.0595 34.4673 28.1093 34.4624 29.6602 34.3357C31.1373 34.215 31.6047 34.0154 31.7732 33.9296C32.7014 33.4566 33.4566 32.7014 33.9296 31.7732C34.0154 31.6047 34.215 31.1373 34.3357 29.6602C34.4624 28.1093 34.4673 26.0595 34.4673 22.8256Z" fill="#586675"/>
    <path d="M39.2523 51.1077V57.3556H34.3164V51.1077H39.2523ZM50.894 39.4659V34.53C50.894 31.2965 50.8891 29.2463 50.7624 27.6954C50.6416 26.2174 50.442 25.7493 50.3563 25.581C49.8834 24.653 49.128 23.8989 48.1999 23.426C48.0316 23.3403 47.5647 23.1407 46.0869 23.0199C44.536 22.8932 42.4862 22.8883 39.2523 22.8883H34.3164C31.0828 22.8883 29.0327 22.8933 27.4817 23.0199C26.0037 23.1407 25.5356 23.3403 25.3674 23.426C24.4396 23.8989 23.6852 24.6533 23.2124 25.581C23.1266 25.7493 22.9271 26.2174 22.8063 27.6954C22.6796 29.2463 22.6747 31.2964 22.6747 34.53V39.4659C22.6747 42.6998 22.6796 44.7496 22.8063 46.3006C22.927 47.7784 23.1266 48.2453 23.2124 48.4136C23.6852 49.3417 24.4393 50.097 25.3674 50.57C25.5356 50.6557 26.0037 50.8553 27.4817 50.976C29.0326 51.1027 31.0828 51.1077 34.3164 51.1077V57.3556L32.1096 57.3528C27.6278 57.3373 25.0156 57.2204 22.9897 56.3502L22.5318 56.136C20.5595 55.131 18.9325 53.5652 17.8536 51.6398L17.6449 51.2505C16.5786 49.1577 16.4462 46.4986 16.4295 41.6713L16.4267 39.4659V34.53C16.4267 28.66 16.4268 25.5409 17.4307 23.2034L17.6449 22.7455C18.6498 20.7733 20.216 19.1461 22.1412 18.0672L22.5318 17.8586C24.6245 16.7925 27.2832 16.6598 32.1096 16.6432L34.3164 16.6404H39.2523L41.4577 16.6432C46.2849 16.6598 48.944 16.7923 51.0368 17.8586C53.1406 18.9305 54.8504 20.6417 55.9223 22.7455C57.1409 25.1372 57.1419 28.2683 57.1419 34.53V39.4659L57.1391 41.6713C57.1225 46.4986 56.9887 49.1577 55.9223 51.2505L55.7137 51.6398C54.6349 53.5649 53.0089 55.131 51.0368 56.136L50.5789 56.3502C48.5529 57.2206 45.9404 57.3373 41.4577 57.3528L39.2523 57.3556V51.1077C42.4862 51.1077 44.536 51.1028 46.0869 50.976C47.564 50.8554 48.0314 50.6558 48.1999 50.57C49.1281 50.097 49.8834 49.3418 50.3563 48.4136C50.4421 48.245 50.6417 47.7777 50.7624 46.3006C50.8891 44.7496 50.894 42.6998 50.894 39.4659Z" fill="#586675"/>
  </svg>
  <text x="60" y="25" fill="#1F1F1F" font-family="-apple-system, BlinkMacSystemFont, 'SF Pro Text', 'Segoe UI', sans-serif" font-size="14" font-weight="500" letter-spacing="0">Continue with Configure</text>
</svg>
